<?xml version="1.0" encoding="utf-8"?>
<!-- Generator: Adobe Illustrator 16.0.3, SVG Export Plug-In . SVG Version: 6.00 Build 0)  -->
<!DOCTYPE svg PUBLIC "-//W3C//DTD SVG 1.1//EN" "http://www.w3.org/Graphics/SVG/1.1/DTD/svg11.dtd">
<svg version="1.1" id="Layer_1" xmlns="http://www.w3.org/2000/svg" xmlns:xlink="http://www.w3.org/1999/xlink" x="0px" y="0px"
	 width="798.6px" height="800px" viewBox="0 0 798.6 800" style="enable-background:new 0 0 798.6 800;" xml:space="preserve">
<style type="text/css">
<![CDATA[
	.st0{fill:#EDAB17;}
]]>
</style>
<g>
	<path class="st0" d="M401.3,430.2c79.3,0,145.2-57.5,158.4-133H408.9c-12.3,0-22.3-10-22.3-22.3V109.3
		c-81.9,7.4-146.1,76.3-146.1,160.1C240.5,358.2,312.4,430.2,401.3,430.2z"/>
	<path class="st0" d="M401.3,11.4c-214.6,0-388.5,173.9-388.5,388.5c0,214.6,173.9,388.5,388.5,388.5
		c214.6,0,388.5-173.9,388.5-388.5C789.8,185.4,615.8,11.4,401.3,11.4z M401.3,90.5c98.8,0,178.9,80.1,178.9,178.9
		c0,98.8-80.1,178.9-178.9,178.9c-98.8,0-178.9-80.1-178.9-178.9C222.4,170.6,302.5,90.5,401.3,90.5z M590.1,542.7
		c-5,0-9.6-1.4-13.5-3.9l-88.8,78.6c1.3,3.1,2,6.5,2,10c0,14.2-11.5,25.7-25.7,25.7s-25.7-11.5-25.7-25.7c0-1,0.1-2,0.2-3
		l-80.3-32.9c-4.7,6-12,9.8-20.2,9.8c-6.4,0-12.2-2.4-16.7-6.2l-85.2,57.2c1.1,2.8,1.7,5.9,1.7,9.1c0,14.2-11.5,25.7-25.7,25.7
		c-14.2,0-25.7-11.5-25.7-25.7c0-14.2,11.5-25.7,25.7-25.7c5.6,0,10.8,1.8,15,4.9l86.2-57.8c-0.7-2.3-1-4.6-1-7.1
		c0-14.2,11.5-25.7,25.7-25.7c14.2,0,25.7,11.5,25.7,25.7c0,0.7-0.1,1.5-0.1,2.2l80.7,33.1c4.7-5.6,11.8-9.2,19.7-9.2
		c5.3,0,10.2,1.6,14.2,4.3l88.4-78.3c-1.5-3.3-2.4-6.9-2.4-10.8c0-14.2,11.5-25.7,25.7-25.7c14.2,0,25.7,11.5,25.7,25.7
		C615.8,531.2,604.3,542.7,590.1,542.7z"/>
</g>
</svg>
